<?xml version="1.0" standalone="no"?>
<!DOCTYPE svg PUBLIC "-//W3C//DTD SVG 20010904//EN"
 "http://www.w3.org/TR/2001/REC-SVG-20010904/DTD/svg10.dtd">
<svg version="1.0" xmlns="http://www.w3.org/2000/svg"
 width="1536.000000pt" height="1024.000000pt" viewBox="0 0 1536.000000 1024.000000"
 preserveAspectRatio="xMidYMid meet">

<g transform="translate(0.000000,1024.000000) scale(0.100000,-0.100000)"
fill="#000000" stroke="none">
<path d="M5770 9445 c-295 -36 -559 -151 -805 -350 -104 -84 -304 -287 -419
-425 -238 -284 -372 -403 -560 -496 -159 -78 -235 -95 -426 -96 -160 0 -254
11 -428 52 -51 12 -96 19 -99 16 -3 -3 -14 -74 -25 -158 -26 -206 -39 -917
-17 -934 14 -11 195 -62 294 -83 181 -39 435 -51 605 -31 300 36 585 167 851
389 123 102 198 183 434 466 209 250 266 309 394 403 206 154 394 193 493 104
54 -48 69 -82 75 -166 10 -136 -59 -326 -198 -537 -146 -223 -283 -341 -812
-705 -401 -277 -680 -498 -911 -724 -538 -526 -789 -1048 -762 -1585 16 -326
89 -574 247 -847 94 -161 264 -356 419 -481 175 -140 394 -245 643 -308 103
-26 381 -37 509 -20 312 42 686 225 995 487 339 289 581 569 1068 1239 468
644 566 767 815 1015 201 202 281 268 407 341 169 96 272 124 463 124 174 0
250 -17 385 -85 196 -99 298 -211 373 -405 57 -149 116 -445 94 -467 -5 -5
-62 -21 -128 -38 -309 -76 -599 -197 -884 -368 -265 -158 -474 -326 -710 -568
-270 -276 -451 -522 -606 -819 -176 -338 -266 -742 -235 -1055 45 -443 224
-773 556 -1023 93 -71 274 -165 403 -211 103 -37 300 -75 423 -82 402 -24 853
126 1202 400 95 74 261 240 342 341 311 387 582 998 701 1578 30 150 80 464
96 610 l11 107 339 0 338 0 0 223 c0 122 1 377 1 567 l1 345 -334 3 -334 2
-12 94 c-27 200 -81 424 -151 626 -243 705 -653 1179 -1221 1413 -198 81 -382
117 -600 117 -205 0 -378 -34 -580 -115 -513 -204 -973 -592 -1526 -1285 -55
-69 -182 -228 -283 -355 -370 -466 -436 -545 -677 -810 -253 -278 -335 -354
-469 -430 -103 -58 -189 -79 -313 -73 -122 6 -189 34 -265 110 -94 94 -132
210 -125 373 16 324 212 537 975 1055 437 297 533 371 722 555 237 231 405
462 544 748 105 217 160 377 199 587 18 96 22 152 23 340 0 199 -3 238 -24
340 -55 265 -153 455 -322 621 -157 155 -359 267 -584 323 -149 37 -394 45
-595 21z m4140 -5412 c0 -27 -43 -279 -65 -383 -136 -649 -441 -1191 -758
-1349 -248 -123 -476 -40 -517 189 -16 88 -5 174 36 300 116 350 367 686 704
944 162 124 302 200 495 272 98 36 105 38 105 27z"/>
</g>
</svg>
